<svg width="116" height="63" viewBox="0 0 116 63" fill="none" xmlns="http://www.w3.org/2000/svg">
<circle cx="58" cy="8" r="8" fill="url(#paint0_linear_406_13)"/>
<path d="M35.6141 43.26V56H33.3341V45.92C32.9207 46.3067 32.4941 46.6533 32.0541 46.96C31.6141 47.2533 31.2007 47.4533 30.8141 47.56L29.9141 45.92C30.2341 45.7867 30.5541 45.6533 30.8741 45.52C31.1941 45.3733 31.5141 45.2 31.8341 45C32.1541 44.8 32.4807 44.5667 32.8141 44.3C33.1607 44.02 33.5274 43.6733 33.9141 43.26H35.6141ZM45.8494 45.32C45.556 45.2133 45.236 45.1267 44.8894 45.06C44.5427 44.9933 44.196 44.96 43.8494 44.96C43.2627 44.96 42.7827 45.0667 42.4094 45.28C42.0494 45.4933 41.7627 45.7867 41.5494 46.16C41.336 46.5333 41.1827 46.9667 41.0894 47.46C41.0094 47.94 40.9627 48.46 40.9494 49.02C41.056 48.8867 41.1894 48.7467 41.3494 48.6C41.5227 48.4533 41.716 48.32 41.9294 48.2C42.156 48.0667 42.4094 47.96 42.6894 47.88C42.9694 47.7867 43.2827 47.74 43.6294 47.74C44.8027 47.74 45.7227 48.1067 46.3894 48.84C47.056 49.56 47.3894 50.58 47.3894 51.9C47.3894 52.5 47.2894 53.06 47.0894 53.58C46.9027 54.0867 46.6227 54.5333 46.2494 54.92C45.876 55.2933 45.416 55.5867 44.8694 55.8C44.3227 56.0133 43.6894 56.12 42.9694 56.12C42.1294 56.12 41.4227 55.96 40.8494 55.64C40.2894 55.32 39.836 54.8733 39.4894 54.3C39.1427 53.7267 38.8894 53.0467 38.7294 52.26C38.5827 51.46 38.5094 50.5867 38.5094 49.64C38.5094 48.7867 38.6094 47.9733 38.8094 47.2C39.0094 46.4133 39.3227 45.7267 39.7494 45.14C40.1894 44.5533 40.7494 44.0867 41.4294 43.74C42.1227 43.38 42.956 43.2 43.9294 43.2C44.4227 43.2 44.8827 43.2533 45.3094 43.36C45.736 43.4667 46.1227 43.5933 46.4694 43.74L45.8494 45.32ZM43.1894 49.46C42.9227 49.46 42.6627 49.5 42.4094 49.58C42.156 49.66 41.9294 49.76 41.7294 49.88C41.5294 49.9867 41.356 50.0933 41.2094 50.2C41.076 50.2933 40.9894 50.36 40.9494 50.4C41.0027 51.7733 41.1894 52.7867 41.5094 53.44C41.8427 54.0933 42.3894 54.42 43.1494 54.42C43.8294 54.42 44.316 54.1933 44.6094 53.74C44.916 53.2733 45.0694 52.6667 45.0694 51.92C45.0694 51.2267 44.9294 50.6467 44.6494 50.18C44.3827 49.7 43.896 49.46 43.1894 49.46ZM53.0953 56L56.4353 50.72L53.5153 46.04H56.1553L57.4153 48.1C57.4953 48.2333 57.602 48.44 57.7353 48.72C57.8686 49 58.002 49.28 58.1353 49.56C58.2953 49.32 58.4486 49.08 58.5953 48.84C58.7553 48.6 58.8953 48.3667 59.0153 48.14C59.3353 47.5533 59.562 47.0533 59.6953 46.64C59.842 46.2267 59.9153 46.0267 59.9153 46.04H62.2753C62.2753 46.0267 62.1953 46.2467 62.0353 46.7C61.8753 47.1533 61.5953 47.7533 61.1953 48.5C60.9686 48.9 60.7086 49.3 60.4153 49.7C60.122 50.0867 59.8353 50.4333 59.5553 50.74L62.7953 56H60.1953L58.7153 53.42L57.9353 51.96L57.1553 53.44L55.6553 56H53.0953ZM73.6023 43.26V56H71.3223V45.92C70.909 46.3067 70.4823 46.6533 70.0423 46.96C69.6023 47.2533 69.189 47.4533 68.8023 47.56L67.9023 45.92C68.2223 45.7867 68.5423 45.6533 68.8623 45.52C69.1823 45.3733 69.5023 45.2 69.8223 45C70.1423 44.8 70.469 44.5667 70.8023 44.3C71.149 44.02 71.5157 43.6733 71.9023 43.26H73.6023ZM83.8377 45.32C83.5443 45.2133 83.2243 45.1267 82.8777 45.06C82.531 44.9933 82.1843 44.96 81.8377 44.96C81.251 44.96 80.771 45.0667 80.3977 45.28C80.0377 45.4933 79.751 45.7867 79.5377 46.16C79.3243 46.5333 79.171 46.9667 79.0777 47.46C78.9977 47.94 78.951 48.46 78.9377 49.02C79.0443 48.8867 79.1777 48.7467 79.3377 48.6C79.511 48.4533 79.7043 48.32 79.9177 48.2C80.1443 48.0667 80.3977 47.96 80.6777 47.88C80.9577 47.7867 81.271 47.74 81.6177 47.74C82.791 47.74 83.711 48.1067 84.3777 48.84C85.0443 49.56 85.3777 50.58 85.3777 51.9C85.3777 52.5 85.2777 53.06 85.0777 53.58C84.891 54.0867 84.611 54.5333 84.2377 54.92C83.8643 55.2933 83.4043 55.5867 82.8577 55.8C82.311 56.0133 81.6777 56.12 80.9577 56.12C80.1177 56.12 79.411 55.96 78.8377 55.64C78.2777 55.32 77.8243 54.8733 77.4777 54.3C77.131 53.7267 76.8777 53.0467 76.7177 52.26C76.571 51.46 76.4977 50.5867 76.4977 49.64C76.4977 48.7867 76.5977 47.9733 76.7977 47.2C76.9977 46.4133 77.311 45.7267 77.7377 45.14C78.1777 44.5533 78.7377 44.0867 79.4177 43.74C80.111 43.38 80.9443 43.2 81.9177 43.2C82.411 43.2 82.871 43.2533 83.2977 43.36C83.7243 43.4667 84.111 43.5933 84.4577 43.74L83.8377 45.32ZM81.1777 49.46C80.911 49.46 80.651 49.5 80.3977 49.58C80.1443 49.66 79.9177 49.76 79.7177 49.88C79.5177 49.9867 79.3443 50.0933 79.1977 50.2C79.0643 50.2933 78.9777 50.36 78.9377 50.4C78.991 51.7733 79.1777 52.7867 79.4977 53.44C79.831 54.0933 80.3777 54.42 81.1377 54.42C81.8177 54.42 82.3043 54.1933 82.5977 53.74C82.9043 53.2733 83.0577 52.6667 83.0577 51.92C83.0577 51.2267 82.9177 50.6467 82.6377 50.18C82.371 49.7 81.8843 49.46 81.1777 49.46Z" fill="#555555"/>
<defs>
<linearGradient id="paint0_linear_406_13" x1="53.25" y1="14.5" x2="61.6" y2="3.28" gradientUnits="userSpaceOnUse">
<stop stop-color="#8914DE"/>
<stop offset="0.0833333" stop-color="#8914DE"/>
<stop offset="0.995417" stop-color="#338CF5"/>
</linearGradient>
</defs>
</svg>
