<svg width="160" height="24" viewBox="0 0 160 24" fill="none" xmlns="http://www.w3.org/2000/svg">
<circle cx="18" cy="12" r="12" fill="url(#paint0_linear_406_21)"/>
<path d="M44.1739 20V5.9H53.8339V8.32H47.1339V11.62H53.3939V14.06H47.1339V17.58H53.8339V20H44.1739ZM56.0233 20V10.18H58.9833V11.62C59.3166 11.0867 59.7633 10.68 60.3233 10.4C60.8833 10.12 61.5099 9.98 62.2033 9.98C63.3633 9.98 64.2299 10.32 64.8033 11C65.3766 11.6667 65.6633 12.7 65.6633 14.1V20H62.6433V14.24C62.6433 13.56 62.5166 13.0733 62.2633 12.78C62.0099 12.4733 61.6366 12.32 61.1433 12.32C60.5033 12.32 59.9899 12.52 59.6033 12.92C59.2299 13.32 59.0433 13.8533 59.0433 14.52V20H56.0233ZM72.7378 20.22C69.9778 20.22 68.5978 18.88 68.5978 16.2V12.44H66.7378V10.18H68.5978V7.3H71.6178V10.18H74.5178V12.44H71.6178V16.08C71.6178 16.64 71.7445 17.06 71.9978 17.34C72.2645 17.62 72.6845 17.76 73.2578 17.76C73.4311 17.76 73.6111 17.74 73.7978 17.7C73.9978 17.66 74.2111 17.6067 74.4378 17.54L74.8778 19.74C74.5978 19.8867 74.2645 20 73.8778 20.08C73.4911 20.1733 73.1111 20.22 72.7378 20.22ZM76.0038 20V10.18H78.9638V11.88C79.4304 10.7333 80.4304 10.1 81.9638 9.98L82.8438 9.92L83.0238 12.46L81.3238 12.64C79.8304 12.7867 79.0838 13.5467 79.0838 14.92V20H76.0038ZM88.7902 20.22C87.7368 20.22 86.8168 20.0133 86.0302 19.6C85.2568 19.1733 84.6568 18.58 84.2302 17.82C83.8035 17.0467 83.5902 16.1333 83.5902 15.08C83.5902 14.04 83.8035 13.14 84.2302 12.38C84.6568 11.6067 85.2568 11.0133 86.0302 10.6C86.8168 10.1867 87.7368 9.98 88.7902 9.98C89.8435 9.98 90.7568 10.1867 91.5302 10.6C92.3168 11.0133 92.9235 11.6067 93.3502 12.38C93.7902 13.14 94.0102 14.04 94.0102 15.08C94.0102 16.1333 93.7902 17.0467 93.3502 17.82C92.9235 18.58 92.3168 19.1733 91.5302 19.6C90.7568 20.0133 89.8435 20.22 88.7902 20.22ZM88.7902 17.96C89.4302 17.96 89.9502 17.7267 90.3502 17.26C90.7635 16.7933 90.9702 16.0667 90.9702 15.08C90.9702 14.1067 90.7635 13.3933 90.3502 12.94C89.9502 12.4733 89.4302 12.24 88.7902 12.24C88.1502 12.24 87.6302 12.4733 87.2302 12.94C86.8302 13.3933 86.6302 14.1067 86.6302 15.08C86.6302 16.0667 86.8302 16.7933 87.2302 17.26C87.6302 17.7267 88.1502 17.96 88.7902 17.96ZM95.8475 23.6V10.18H98.8075V11.64C99.0742 11.1333 99.4808 10.7333 100.028 10.44C100.588 10.1333 101.214 9.98 101.908 9.98C102.761 9.98 103.508 10.1867 104.148 10.6C104.801 11.0133 105.308 11.6 105.668 12.36C106.028 13.12 106.208 14.0267 106.208 15.08C106.208 16.1333 106.028 17.0467 105.668 17.82C105.308 18.58 104.801 19.1733 104.148 19.6C103.508 20.0133 102.761 20.22 101.908 20.22C101.254 20.22 100.654 20.08 100.108 19.8C99.5742 19.52 99.1608 19.1467 98.8675 18.68V23.6H95.8475ZM101.008 17.96C101.648 17.96 102.168 17.7267 102.568 17.26C102.968 16.7933 103.168 16.0667 103.168 15.08C103.168 14.1067 102.968 13.3933 102.568 12.94C102.168 12.4733 101.648 12.24 101.008 12.24C100.354 12.24 99.8275 12.4733 99.4275 12.94C99.0275 13.3933 98.8275 14.1067 98.8275 15.08C98.8275 16.0667 99.0275 16.7933 99.4275 17.26C99.8275 17.7267 100.354 17.96 101.008 17.96ZM107.935 8.28V5.46H111.195V8.28H107.935ZM108.055 20V10.18H111.075V20H108.055Z" fill="white"/>
<defs>
<linearGradient id="paint0_linear_406_21" x1="12.24" y1="22.92" x2="22.08" y2="1.8" gradientUnits="userSpaceOnUse">
<stop stop-color="#8914DE"/>
<stop offset="0.399454" stop-color="#4F64ED" stop-opacity="0.9"/>
<stop offset="0.641496" stop-color="#3F7BF2" stop-opacity="0.9"/>
<stop offset="0.926138" stop-color="#338CF5"/>
</linearGradient>
</defs>
</svg>
