<svg width="160" height="24" viewBox="0 0 160 24" fill="none" xmlns="http://www.w3.org/2000/svg">
<circle cx="18" cy="12" r="12" fill="url(#paint0_linear_406_17)"/>
<path d="M43.1739 20V5.9H52.8339V8.32H46.1339V11.62H52.3939V14.06H46.1339V17.58H52.8339V20H43.1739ZM55.0233 20V10.18H57.9833V11.62C58.3166 11.0867 58.7633 10.68 59.3233 10.4C59.8833 10.12 60.5099 9.98 61.2033 9.98C62.3633 9.98 63.2299 10.32 63.8033 11C64.3766 11.6667 64.6633 12.7 64.6633 14.1V20H61.6433V14.24C61.6433 13.56 61.5166 13.0733 61.2633 12.78C61.0099 12.4733 60.6366 12.32 60.1433 12.32C59.5033 12.32 58.9899 12.52 58.6033 12.92C58.2299 13.32 58.0433 13.8533 58.0433 14.52V20H55.0233ZM71.7378 20.22C68.9778 20.22 67.5978 18.88 67.5978 16.2V12.44H65.7378V10.18H67.5978V7.3H70.6178V10.18H73.5178V12.44H70.6178V16.08C70.6178 16.64 70.7445 17.06 70.9978 17.34C71.2645 17.62 71.6845 17.76 72.2578 17.76C72.4311 17.76 72.6111 17.74 72.7978 17.7C72.9978 17.66 73.2111 17.6067 73.4378 17.54L73.8778 19.74C73.5978 19.8867 73.2645 20 72.8778 20.08C72.4911 20.1733 72.1111 20.22 71.7378 20.22ZM75.0038 20V10.18H77.9638V11.88C78.4304 10.7333 79.4304 10.1 80.9638 9.98L81.8438 9.92L82.0238 12.46L80.3238 12.64C78.8304 12.7867 78.0838 13.5467 78.0838 14.92V20H75.0038ZM87.7902 20.22C86.7368 20.22 85.8168 20.0133 85.0302 19.6C84.2568 19.1733 83.6568 18.58 83.2302 17.82C82.8035 17.0467 82.5902 16.1333 82.5902 15.08C82.5902 14.04 82.8035 13.14 83.2302 12.38C83.6568 11.6067 84.2568 11.0133 85.0302 10.6C85.8168 10.1867 86.7368 9.98 87.7902 9.98C88.8435 9.98 89.7568 10.1867 90.5302 10.6C91.3168 11.0133 91.9235 11.6067 92.3502 12.38C92.7902 13.14 93.0102 14.04 93.0102 15.08C93.0102 16.1333 92.7902 17.0467 92.3502 17.82C91.9235 18.58 91.3168 19.1733 90.5302 19.6C89.7568 20.0133 88.8435 20.22 87.7902 20.22ZM87.7902 17.96C88.4302 17.96 88.9502 17.7267 89.3502 17.26C89.7635 16.7933 89.9702 16.0667 89.9702 15.08C89.9702 14.1067 89.7635 13.3933 89.3502 12.94C88.9502 12.4733 88.4302 12.24 87.7902 12.24C87.1502 12.24 86.6302 12.4733 86.2302 12.94C85.8302 13.3933 85.6302 14.1067 85.6302 15.08C85.6302 16.0667 85.8302 16.7933 86.2302 17.26C86.6302 17.7267 87.1502 17.96 87.7902 17.96ZM94.8475 23.6V10.18H97.8075V11.64C98.0742 11.1333 98.4808 10.7333 99.0275 10.44C99.5875 10.1333 100.214 9.98 100.908 9.98C101.761 9.98 102.508 10.1867 103.148 10.6C103.801 11.0133 104.308 11.6 104.668 12.36C105.028 13.12 105.208 14.0267 105.208 15.08C105.208 16.1333 105.028 17.0467 104.668 17.82C104.308 18.58 103.801 19.1733 103.148 19.6C102.508 20.0133 101.761 20.22 100.908 20.22C100.254 20.22 99.6542 20.08 99.1075 19.8C98.5742 19.52 98.1608 19.1467 97.8675 18.68V23.6H94.8475ZM100.008 17.96C100.648 17.96 101.168 17.7267 101.568 17.26C101.968 16.7933 102.168 16.0667 102.168 15.08C102.168 14.1067 101.968 13.3933 101.568 12.94C101.168 12.4733 100.648 12.24 100.008 12.24C99.3542 12.24 98.8275 12.4733 98.4275 12.94C98.0275 13.3933 97.8275 14.1067 97.8275 15.08C97.8275 16.0667 98.0275 16.7933 98.4275 17.26C98.8275 17.7267 99.3542 17.96 100.008 17.96ZM106.935 8.28V5.46H110.195V8.28H106.935ZM107.055 20V10.18H110.075V20H107.055Z" fill="black"/>
<defs>
<linearGradient id="paint0_linear_406_17" x1="12.24" y1="22.92" x2="22.08" y2="1.8" gradientUnits="userSpaceOnUse">
<stop stop-color="#8914DE"/>
<stop offset="0.399454" stop-color="#4F64ED" stop-opacity="0.9"/>
<stop offset="0.641496" stop-color="#3F7BF2" stop-opacity="0.9"/>
<stop offset="0.926138" stop-color="#338CF5"/>
</linearGradient>
</defs>
</svg>
